<?xml version="1.0" encoding="iso-8859-1"?>
<!-- Generator: Adobe Illustrator 19.0.0, SVG Export Plug-In . SVG Version: 6.00 Build 0)  -->
<svg version="1.1" id="Capa_1" xmlns="http://www.w3.org/2000/svg" xmlns:xlink="http://www.w3.org/1999/xlink" x="0px" y="0px"
	 viewBox="0 0 410 410" style="enable-background:new 0 0 410 410;" xml:space="preserve">
<path style="fill:#ACD3F0;" d="M236.876,171.2c-8.4-8.4-19.6-13.2-32-13.2s-24,5.2-32,13.2c-8.4,8.4-13.2,19.6-13.2,32
	s5.2,24,13.2,32c8.4,8.4,19.6,13.2,32,13.2s24-5.2,32-13.2c8.4-8.4,13.2-19.6,13.2-32S245.276,179.2,236.876,171.2z M215.276,138
	c14,2,26.8,8.8,36.4,18.4c2,2,4,4.4,5.6,6.4l15.2-8.8l8.8-44.8c1.2-5.6,6.4-9.2,12-8s9.2,6.4,8,12l-5.2,27.6l24-14l8.8-44.8
	c1.2-5.6,6.4-9.2,12-8s9.2,6.4,8,12l-5.2,27.2l24.8-14.4c4.8-2.8,11.2-1.2,14,3.6s1.2,11.2-3.6,14l-24.8,14.4l26.4,9.2
	c5.2,2,8,7.6,6.4,12.8c-2,5.2-7.6,8-12.8,6.4l-43.2-14.8l-24.4,14l26.4,9.2c5.2,2,8,7.6,6.4,12.8c-2,5.2-7.6,8-12.8,6.4l-43.2-14.8
	l-16,9.2c2.4,6.8,3.6,14.4,3.6,22c0,8.8-2,17.6-5.2,25.2c0.4,0,0.8,0.4,1.2,0.4l16,9.2l43.2-14.8c5.2-2,11.2,1.2,12.8,6.4
	c2,5.2-1.2,11.2-6.4,12.8l-26.4,9.2l24.4,14l43.2-14.8c5.2-2,11.2,1.2,12.8,6.4c2,5.2-1.2,11.2-6.4,12.8l-26.4,9.2l24.8,14.4
	c4.8,2.8,6.4,9.2,3.6,14s-9.2,6.4-14,3.6l-24.4-14l5.2,27.6c1.2,5.6-2.4,10.8-8,12s-10.8-2.4-12-8l-8.8-44.8l-24-14l5.2,27.6
	c1.2,5.6-2.4,10.8-8,12s-10.8-2.4-12-8l-8.8-44.8l-16-9.2c-0.4-0.4-0.8-0.8-1.6-1.2c-1.2,1.2-2.4,2.8-3.6,4
	c-9.6,9.6-22.4,16.4-36.8,18.4c0,0.8,0.4,1.6,0.4,2.4v18l34.4,30c4.4,3.6,4.8,10,0.8,14.4c-3.6,4.4-10,4.8-14.4,0.8l-21.2-18.4v28
	l34.4,30c4.4,3.6,4.8,10,0.8,14.4c-3.6,4.4-10,4.8-14.4,0.8l-21.2-18.4v28.8c0,5.6-4.4,10.4-10.4,10.4c-5.6,0-10.4-4.4-10.4-10.4
	v-28.8l-21.2,18.4c-4.4,3.6-10.8,3.2-14.4-0.8c-3.6-4.4-3.2-10.8,0.8-14.4l34.4-30v-28l-21.2,18.4c-4.4,3.6-10.8,3.2-14.4-0.8
	c-3.6-4.4-3.2-10.8,0.8-14.4l34.4-30v-18.4c0-0.8,0-1.6,0.4-2.4c-14.4-2-26.8-8.8-36.8-18.4c-1.2-1.2-2.4-2.8-3.6-4
	c-0.4,0.4-0.8,0.8-1.6,1.2l-16,9.2l-8.8,44.8c-1.2,5.6-6.4,9.2-12,8s-9.2-6.4-8-12l5.6-27.6l-24,14l-6.8,44.8c-1.2,5.6-6.4,9.2-12,8
	s-9.2-6.4-8-12l5.6-27.6l-24.8,14.4c-4.8,2.8-11.2,1.2-14-3.6c-2.8-4.8-1.2-11.2,3.6-14l24.8-14.4l-26.4-9.2c-5.2-2-8-7.6-6.4-12.8
	c2-5.2,7.6-8,12.8-6.4l43.2,14.8l24.4-14l-26.4-9.2c-5.2-2-8-7.6-6.4-12.8c2-5.2,7.6-8,12.8-6.4l43.2,14.8l16-9.2
	c0.4-0.4,0.8-0.4,1.2-0.4c-3.2-8-5.2-16.4-5.2-25.6c0-7.6,1.2-15.2,3.6-22l-15.6-9.2l-43.2,14.8c-5.2,2-11.2-1.2-12.8-6.4
	c-2-5.2,1.2-11.2,6.4-12.8l26.4-9.2l-24.4-14l-43.2,14.8c-5.2,2-11.2-1.2-12.8-6.4c-2-5.2,1.2-11.2,6.4-12.8l26.4-9.2l-24.8-14.4
	c-4.8-2.8-6.4-9.2-3.6-14s9.2-6.4,14-3.6l24.8,14.4l-5.6-26.8c-1.2-5.6,2.4-10.8,8-12s10.8,2.4,12,8l8.8,44.8l24,14l-5.2-27.6
	c-1.2-5.6,2.4-10.8,8-12s10.8,2.4,12,8l8.8,44.8l15.2,8.8c1.6-2.4,3.6-4.4,5.6-6.4c9.6-9.6,22.4-16.4,36.4-18.4v-16.8l-34.4-30
	c-4.4-3.6-4.8-10-0.8-14.4c3.6-4.4,10-4.8,14.4-0.8l21.2,18.4v-28l-34.4-30c-4.4-3.6-4.8-10-0.8-14.4c3.6-4.4,10-4.8,14.4-0.8
	l21.2,18.4V10.8c0-5.6,4.4-10.4,10.4-10.4c5.6,0,10.4,4.4,10.4,10.4v28.8l21.2-18.4c4.4-3.6,10.8-3.2,14.4,0.8
	c3.6,4.4,3.2,10.8-0.8,14.4l-34.4,30v28l21.2-18.4c4.4-3.6,10.8-3.2,14.4,0.8c3.6,4.4,3.2,10.8-0.8,14.4l-36,30V138z"/>
<g>
	<path style="fill:#C7E2F5;" d="M70.876,230c-2,5.2,1.2,11.2,6.4,12.8l26.4,9.2l-24.4,14l-43.2-14.8c-5.2-2-11.2,1.2-12.8,6.4
		c-2,5.2,1.2,11.2,6.4,12.8l26.4,9.2l-24.8,14.4c-4.8,2.8-6.4,9.2-3.6,14s9.2,6.4,14,3.6l24.8-14.4l-5.6,27.2
		c-1.2,5.6,2.4,10.8,8,12s10.8-2.4,12-8l8.8-44.8l24-14l-5.2,27.6c-1.2,5.6,2.4,10.8,8,12s10.8-2.4,12-8l8.8-44.8l16-9.2
		c0.4-0.4,1.2-0.8,1.6-1.2c1.2,1.2,2.4,2.8,3.6,4c9.6,9.6,22.4,16.4,36.8,18.4c0,0.8-0.4,1.6-0.4,2.4v18.4l-34.4,30
		c-4.4,3.6-4.8,10-0.8,14.4c3.6,4.4,10,4.8,14.4,0.8l21.2-18.4v28l-34.4,30c-4.4,3.6-4.8,10-0.8,14.4c3.6,4.4,10,4.8,14.4,0.8
		l21.2-18.4v28.8c0,5.6,4.4,10.4,10.4,10.4V248.4c-12.4,0-24-5.2-32-13.2c-8.4-8.4-13.2-19.6-13.2-32s5.2-24,13.2-32
		c8.4-8.4,19.6-13.2,32-13.2V0c-5.6,0-10.4,4.4-10.4,10.4v28.8l-21.2-18.4c-4.4-3.6-10.8-3.2-14.4,0.8c-3.6,4.4-3.2,10.8,0.8,14.4
		l34.4,30v28l-21.2-18.4c-4.4-3.6-10.8-3.2-14.4,0.8c-3.6,4.4-3.2,10.8,0.8,14.4l34.4,30V138c-14,2-26.8,8.8-36.4,18.4
		c-2,2-4,4.4-5.6,6.4l-15.2-8.8l-8.8-44.8c-1.2-5.6-6.4-9.2-12-8s-9.2,6.4-8,12l5.6,27.6l-24-14l-9.6-44.8c-1.2-5.6-6.4-9.2-12-8
		s-9.2,6.4-8,12l5.6,27.6l-24.8-14.4c-4.8-2.8-11.2-1.2-14,3.6s-1.2,11.2,3.6,14l24.8,14.4l-26.4,9.2c-5.2,2-8,7.6-6.4,12.8
		c2,5.2,7.6,8,12.8,6.4l43.2-14.8l24.4,14l-26.4,9.2c-5.2,2-8,7.6-6.4,12.8c2,5.2,7.6,8,12.8,6.4l43.2-14.8l15.6,9.2
		c-2.4,6.8-3.6,14.4-3.6,22c0,9.2,2,17.6,5.2,25.6h-0.8l-16,9.2l-43.2-14.8C78.476,221.6,72.476,224.4,70.876,230z"/>
	<path style="fill:#C7E2F5;" d="M159.676,203.2c0,12.4,5.2,24,13.2,32c8.4,8.4,19.6,13.2,32,13.2s24-5.2,32-13.2
		c8.4-8.4,13.2-19.6,13.2-32s-5.2-24-13.2-32c-8.4-8.4-19.6-13.2-32-13.2s-24,5.2-32,13.2
		C164.476,179.2,159.676,190.8,159.676,203.2z"/>
</g>
<g>
</g>
<g>
</g>
<g>
</g>
<g>
</g>
<g>
</g>
<g>
</g>
<g>
</g>
<g>
</g>
<g>
</g>
<g>
</g>
<g>
</g>
<g>
</g>
<g>
</g>
<g>
</g>
<g>
</g>
</svg>
